<?xml version="1.0" encoding="utf-8"?>
<!-- Generator: Adobe Illustrator 16.0.0, SVG Export Plug-In . SVG Version: 6.00 Build 0)  -->
<!DOCTYPE svg PUBLIC "-//W3C//DTD SVG 1.1//EN" "http://www.w3.org/Graphics/SVG/1.1/DTD/svg11.dtd" [
	<!ENTITY ns_flows "http://ns.adobe.com/Flows/1.0/">
	<!ENTITY ns_extend "http://ns.adobe.com/Extensibility/1.0/">
	<!ENTITY ns_ai "http://ns.adobe.com/AdobeIllustrator/10.0/">
	<!ENTITY ns_graphs "http://ns.adobe.com/Graphs/1.0/">
]>
<svg version="1.1" id="Layer_1" xmlns:x="&ns_extend;" xmlns:i="&ns_ai;" xmlns:graph="&ns_graphs;"
	 xmlns="http://www.w3.org/2000/svg" xmlns:xlink="http://www.w3.org/1999/xlink" xmlns:a="http://ns.adobe.com/AdobeSVGViewerExtensions/3.0/"
	 x="0px" y="0px" width="39.666px" height="39.666px" viewBox="0 0 39.666 39.666" enable-background="new 0 0 39.666 39.666"
	 xml:space="preserve">
<path fill="#F45B92" d="M19.833,39.666C8.896,39.666,0,30.771,0,19.834C0,8.896,8.896,0,19.833,0s19.833,8.897,19.833,19.834
	C39.666,30.77,30.77,39.666,19.833,39.666z M19.833,1C9.448,1,1,9.448,1,19.834c0,10.383,8.448,18.832,18.833,18.832
	s18.833-8.447,18.833-18.832C38.666,9.448,30.218,1,19.833,1z"/>
<g>
	<path fill="#F45B92" d="M17.923,21.825c0.006-0.83,0.154-1.453,0.447-1.871s0.826-0.896,1.603-1.439
		c0.397-0.252,0.714-0.561,0.942-0.932c0.229-0.369,0.346-0.797,0.346-1.279c0-0.502-0.135-0.9-0.4-1.199
		c-0.27-0.299-0.65-0.447-1.146-0.447c-0.399,0-0.733,0.123-1.002,0.367c-0.27,0.244-0.409,0.607-0.422,1.092h-2.943l-0.018-0.055
		c-0.019-1.24,0.377-2.172,1.186-2.797c0.809-0.623,1.875-0.934,3.199-0.934c1.42,0,2.537,0.356,3.352,1.071
		c0.812,0.718,1.221,1.685,1.221,2.9c0,0.745-0.222,1.432-0.666,2.059c-0.442,0.625-1.01,1.117-1.694,1.478
		c-0.384,0.25-0.642,0.52-0.772,0.809c-0.136,0.289-0.201,0.682-0.201,1.178H17.923L17.923,21.825z M20.938,25.546h-3.007V23.13
		h3.007V25.546z"/>
	<path fill="#F45B92" d="M15.167,27.335v-0.896h9.332v0.896H15.167z"/>
</g>
</svg>
