<?xml version="1.0" encoding="utf-8"?>
<!-- Generator: Adobe Illustrator 16.0.0, SVG Export Plug-In . SVG Version: 6.00 Build 0)  -->
<!DOCTYPE svg PUBLIC "-//W3C//DTD SVG 1.1//EN" "http://www.w3.org/Graphics/SVG/1.1/DTD/svg11.dtd" [
	<!ENTITY ns_flows "http://ns.adobe.com/Flows/1.0/">
	<!ENTITY ns_extend "http://ns.adobe.com/Extensibility/1.0/">
	<!ENTITY ns_ai "http://ns.adobe.com/AdobeIllustrator/10.0/">
	<!ENTITY ns_graphs "http://ns.adobe.com/Graphs/1.0/">
]>
<svg version="1.1" id="Layer_1" xmlns:x="&ns_extend;" xmlns:i="&ns_ai;" xmlns:graph="&ns_graphs;"
	 xmlns="http://www.w3.org/2000/svg" xmlns:xlink="http://www.w3.org/1999/xlink" xmlns:a="http://ns.adobe.com/AdobeSVGViewerExtensions/3.0/"
	 x="0px" y="0px" width="20px" height="9px" viewBox="0 0 20 9" enable-background="new 0 0 20 9" xml:space="preserve">
<g>
	<path fill="#57617D" d="M6.69,8.583H4.435c-2.251,0-4.083-1.832-4.083-4.083c0-2.252,1.832-4.084,4.083-4.084h3.859
		c2.251,0,4.083,1.832,4.083,4.084c0,0.463-0.375,0.839-0.838,0.839c-0.463,0-0.839-0.376-0.839-0.839
		c0-1.326-1.079-2.406-2.405-2.406H4.435c-1.327,0-2.406,1.08-2.406,2.406s1.079,2.404,2.406,2.404H6.69
		c0.463,0,0.84,0.376,0.84,0.84C7.53,8.208,7.153,8.583,6.69,8.583z"/>
	<path fill="#57617D" d="M15.565,8.583h-3.86c-2.251,0-4.083-1.832-4.083-4.083c0-0.464,0.376-0.84,0.839-0.84
		C8.925,3.661,9.3,4.037,9.3,4.5c0,1.326,1.08,2.404,2.405,2.404h3.86c1.327,0,2.405-1.078,2.405-2.404s-1.079-2.406-2.405-2.406
		h-2.256c-0.463,0-0.838-0.375-0.838-0.839c0-0.463,0.375-0.839,0.838-0.839h2.256c2.252,0,4.083,1.832,4.083,4.084
		C19.649,6.751,17.817,8.583,15.565,8.583z"/>
</g>
</svg>
