<?xml version="1.0" encoding="utf-8"?>
<!-- Generator: Adobe Illustrator 16.0.0, SVG Export Plug-In . SVG Version: 6.00 Build 0)  -->
<!DOCTYPE svg PUBLIC "-//W3C//DTD SVG 1.1//EN" "http://www.w3.org/Graphics/SVG/1.1/DTD/svg11.dtd" [
	<!ENTITY ns_flows "http://ns.adobe.com/Flows/1.0/">
	<!ENTITY ns_extend "http://ns.adobe.com/Extensibility/1.0/">
	<!ENTITY ns_ai "http://ns.adobe.com/AdobeIllustrator/10.0/">
	<!ENTITY ns_graphs "http://ns.adobe.com/Graphs/1.0/">
]>
<svg version="1.1" id="Layer_1" xmlns:x="&ns_extend;" xmlns:i="&ns_ai;" xmlns:graph="&ns_graphs;"
	 xmlns="http://www.w3.org/2000/svg" xmlns:xlink="http://www.w3.org/1999/xlink" xmlns:a="http://ns.adobe.com/AdobeSVGViewerExtensions/3.0/"
	 x="0px" y="0px" width="27px" height="25px" viewBox="110.5 45.5 27 25" enable-background="new 110.5 45.5 27 25"
	 xml:space="preserve">
<g>
	<polygon fill="#F7F7F7" points="123.37,68.663 110.953,68.663 110.946,53.855 120.254,53.855 121.421,53.334 130.305,53.334 
		131.712,53.855 133.004,55.461 133.004,59.34 	"/>
	<g>
		<path fill="#00BFA5" d="M133.012,57.587v-2.27c0-1.095-0.889-1.983-1.984-1.983h-1.379v1.631h1.08c0,0,0.602,0.031,0.602,0.456
			c0,0.425,0,2.167,0,2.167L133.012,57.587L133.012,57.587z"/>
		<path fill="#00BFA5" d="M110.953,65.943V52.826c0-1.563,0.888-1.983,1.983-1.983h4.474c1.095,0,1.983,0.45,1.983,1.983v0.508l0,0
			h3.37v1.591h-9.766c-0.16,0-0.391,0.141-0.391,0.711c0,0.57,0,10.466,0,10.466s0.041,1.051-0.69,1.051
			C110.916,67.152,110.953,65.943,110.953,65.943z"/>
		<path fill="#00BFA5" d="M135.809,58.407H121.81h-2.189c0,0-1.441-0.223-2.302,1.621c-0.42,0.899-3.662,6.874-3.662,6.874
			s-0.63,1.542-1.651,1.621c-0.871,0-1.053-0.961-1.053-0.961v0.683c0,1.096,0.65,1.983,1.746,1.983h12.605h4.603
			c0,0,1.351-0.005,1.921-0.574s2.701-5.083,2.701-5.083l2.002-3.808c1.365-2.358-0.375-2.356-0.375-2.356h-7.459"/>
		<path fill="#00BFA5" d="M130.111,50.328l-1.598-2.103c-0.006-0.007-0.012-0.014-0.018-0.021l-1.751-2.146
			c-0.147-0.182-0.37-0.287-0.604-0.287c-0.233,0-0.457,0.105-0.604,0.287l-1.75,2.146c-0.006,0.007-0.011,0.014-0.017,0.021
			l-1.631,2.145c-0.179,0.236-0.209,0.554-0.078,0.819c0.131,0.265,0.402,0.434,0.699,0.434h1.7v3.962
			c0,0.664,0.538,1.201,1.201,1.201h0.961c0.663,0,1.201-0.537,1.201-1.201v-3.962h1.699h0.002c0.432,0,0.781-0.35,0.781-0.78
			C130.305,50.646,130.232,50.465,130.111,50.328z"/>
	</g>
</g>
</svg>
