<?xml version="1.0" encoding="utf-8"?>
<!-- Generator: Adobe Illustrator 16.0.0, SVG Export Plug-In . SVG Version: 6.00 Build 0)  -->
<!DOCTYPE svg PUBLIC "-//W3C//DTD SVG 1.1//EN" "http://www.w3.org/Graphics/SVG/1.1/DTD/svg11.dtd" [
	<!ENTITY ns_flows "http://ns.adobe.com/Flows/1.0/">
	<!ENTITY ns_extend "http://ns.adobe.com/Extensibility/1.0/">
	<!ENTITY ns_ai "http://ns.adobe.com/AdobeIllustrator/10.0/">
	<!ENTITY ns_graphs "http://ns.adobe.com/Graphs/1.0/">
]>
<svg version="1.1" id="Layer_1" xmlns:x="&ns_extend;" xmlns:i="&ns_ai;" xmlns:graph="&ns_graphs;"
	 xmlns="http://www.w3.org/2000/svg" xmlns:xlink="http://www.w3.org/1999/xlink" xmlns:a="http://ns.adobe.com/AdobeSVGViewerExtensions/3.0/"
	 x="0px" y="0px" width="11px" height="11px" viewBox="0 0 11 11" enable-background="new 0 0 11 11" xml:space="preserve">
<g>
	<g>
		<path fill="#DEE7FB" d="M2.751,2.474V4.34h0.359l0.03-0.112C3.233,3.899,3.342,3.64,3.467,3.458
			c0.121-0.178,0.247-0.31,0.374-0.389C3.967,2.99,4.092,2.941,4.213,2.923c0.136-0.018,0.259-0.028,0.364-0.028h0.346v5.21H3.974
			v0.42h3.053v-0.42H6.078v-5.21h0.345c0.105,0,0.227,0.011,0.364,0.028C6.908,2.941,7.033,2.99,7.159,3.069S7.412,3.28,7.533,3.458
			C7.656,3.64,7.767,3.899,7.859,4.229L7.89,4.34h0.359V2.474H2.751z"/>
	</g>
	<path fill="#DEE7FB" d="M8.749,10.5h-0.65c-0.083,0-0.151-0.068-0.151-0.149c0-0.086,0.067-0.152,0.151-0.152h0.65
		c0.083,0,0.151,0.066,0.151,0.152C8.9,10.432,8.833,10.5,8.749,10.5z M6.799,10.5H6.15C6.067,10.5,6,10.432,6,10.351
		c0-0.086,0.067-0.152,0.151-0.152h0.649c0.083,0,0.151,0.066,0.151,0.152C6.95,10.432,6.883,10.5,6.799,10.5z M4.85,10.5H4.201
		c-0.083,0-0.151-0.068-0.151-0.149c0-0.086,0.067-0.152,0.151-0.152H4.85c0.083,0,0.151,0.066,0.151,0.152
		C5.001,10.432,4.934,10.5,4.85,10.5z M2.901,10.5H2.251c-0.083,0-0.151-0.068-0.151-0.149c0-0.086,0.067-0.152,0.151-0.152h0.649
		c0.084,0,0.151,0.066,0.151,0.152C3.052,10.432,2.985,10.5,2.901,10.5z"/>
	<path fill="#DEE7FB" d="M0.952,10.5H0.65c-0.083,0-0.15-0.068-0.15-0.149v-0.302c0-0.085,0.067-0.152,0.15-0.152
		c0.083,0,0.151,0.067,0.151,0.152v0.149h0.151c0.083,0,0.15,0.066,0.15,0.152C1.103,10.432,1.035,10.5,0.952,10.5z"/>
	<path fill="#DEE7FB" d="M8.749,0.801H8.099c-0.083,0-0.151-0.066-0.151-0.151c0-0.082,0.067-0.15,0.151-0.15h0.649
		c0.084,0,0.151,0.068,0.151,0.15C8.899,0.735,8.833,0.801,8.749,0.801z M6.799,0.801H6.15C6.067,0.801,6,0.735,6,0.65
		C6,0.568,6.067,0.5,6.15,0.5h0.649c0.083,0,0.151,0.068,0.151,0.15C6.95,0.735,6.883,0.801,6.799,0.801z M4.85,0.801H4.201
		c-0.083,0-0.151-0.066-0.151-0.151c0-0.082,0.067-0.15,0.151-0.15H4.85c0.083,0,0.151,0.068,0.151,0.15
		C5.001,0.735,4.934,0.801,4.85,0.801z M2.901,0.801H2.251c-0.083,0-0.151-0.066-0.151-0.151c0-0.082,0.067-0.15,0.151-0.15h0.649
		c0.083,0,0.151,0.068,0.151,0.15C3.052,0.735,2.984,0.801,2.901,0.801z"/>
	<path fill="#DEE7FB" d="M0.65,8.9C0.567,8.9,0.5,8.832,0.5,8.749V8.1c0-0.085,0.067-0.151,0.15-0.151
		c0.083,0,0.151,0.066,0.151,0.151v0.648C0.801,8.832,0.734,8.9,0.65,8.9z M0.65,6.951c-0.083,0-0.15-0.067-0.15-0.15V6.15
		c0-0.083,0.067-0.151,0.15-0.151c0.083,0,0.151,0.068,0.151,0.151V6.8C0.801,6.883,0.734,6.951,0.65,6.951z M0.65,5.001
		c-0.083,0-0.15-0.068-0.15-0.151V4.2c0-0.082,0.067-0.149,0.15-0.149c0.083,0,0.151,0.067,0.151,0.149v0.65
		C0.801,4.933,0.734,5.001,0.65,5.001z M0.65,3.052c-0.083,0-0.15-0.067-0.15-0.15v-0.65c0-0.083,0.067-0.15,0.15-0.15
		c0.083,0,0.151,0.067,0.151,0.15v0.65C0.801,2.985,0.734,3.052,0.65,3.052z"/>
	<path fill="#DEE7FB" d="M10.35,8.9c-0.083,0-0.151-0.068-0.151-0.151v-0.65c0-0.083,0.067-0.15,0.151-0.15
		c0.083,0,0.15,0.067,0.15,0.15v0.65C10.5,8.832,10.433,8.9,10.35,8.9z M10.35,6.95c-0.083,0-0.151-0.066-0.151-0.15V6.15
		c0-0.083,0.067-0.151,0.151-0.151c0.083,0,0.15,0.068,0.15,0.151v0.649C10.5,6.883,10.433,6.95,10.35,6.95z M10.35,5.001
		c-0.083,0-0.151-0.068-0.151-0.151V4.2c0-0.082,0.067-0.15,0.151-0.15c0.083,0,0.15,0.068,0.15,0.15v0.65
		C10.5,4.933,10.433,5.001,10.35,5.001z M10.35,3.051c-0.083,0-0.151-0.066-0.151-0.149v-0.65c0-0.083,0.067-0.15,0.151-0.15
		c0.083,0,0.15,0.067,0.15,0.15v0.65C10.5,2.985,10.433,3.051,10.35,3.051z"/>
	<path fill="#DEE7FB" d="M10.35,1.103c-0.083,0-0.151-0.068-0.151-0.151v-0.15h-0.15c-0.084,0-0.151-0.066-0.151-0.151
		c0-0.082,0.067-0.15,0.151-0.15h0.301c0.083,0,0.15,0.068,0.15,0.15v0.302C10.5,1.035,10.433,1.103,10.35,1.103z"/>
	<path fill="#DEE7FB" d="M0.65,1.103c-0.083,0-0.15-0.068-0.15-0.151V0.65c0-0.082,0.067-0.15,0.15-0.15h0.302
		c0.083,0,0.15,0.068,0.15,0.15c0,0.085-0.067,0.151-0.15,0.151H0.801v0.15C0.801,1.035,0.734,1.103,0.65,1.103z"/>
	<path fill="#DEE7FB" d="M10.35,10.5h-0.301c-0.084,0-0.151-0.068-0.151-0.149c0-0.086,0.067-0.152,0.151-0.152h0.15v-0.149
		c0-0.085,0.067-0.152,0.151-0.152c0.083,0,0.15,0.067,0.15,0.152v0.302C10.5,10.432,10.433,10.5,10.35,10.5z"/>
</g>
</svg>
