<?xml version="1.0" encoding="utf-8"?>
<!-- Generator: Adobe Illustrator 16.0.0, SVG Export Plug-In . SVG Version: 6.00 Build 0)  -->
<!DOCTYPE svg PUBLIC "-//W3C//DTD SVG 1.1//EN" "http://www.w3.org/Graphics/SVG/1.1/DTD/svg11.dtd" [
	<!ENTITY ns_flows "http://ns.adobe.com/Flows/1.0/">
	<!ENTITY ns_extend "http://ns.adobe.com/Extensibility/1.0/">
	<!ENTITY ns_ai "http://ns.adobe.com/AdobeIllustrator/10.0/">
	<!ENTITY ns_graphs "http://ns.adobe.com/Graphs/1.0/">
]>
<svg version="1.1" id="Layer_1" xmlns:x="&ns_extend;" xmlns:i="&ns_ai;" xmlns:graph="&ns_graphs;"
	 xmlns="http://www.w3.org/2000/svg" xmlns:xlink="http://www.w3.org/1999/xlink" xmlns:a="http://ns.adobe.com/AdobeSVGViewerExtensions/3.0/"
	 x="0px" y="0px" width="22px" height="13px" viewBox="0 0 22 13" enable-background="new 0 0 22 13" xml:space="preserve">
<g>
	<path fill="#8995B6" d="M21.442,1.023H0.035c0,0,0-0.247,0-0.523s0-0.477,0-0.477h21.407c0.289,0,0.522,0.224,0.522,0.5
		S21.731,1.023,21.442,1.023z"/>
	<path fill="#8995B6" d="M21.442,4.023H0.035c0,0,0-0.247,0-0.523s0-0.477,0-0.477h21.407c0.289,0,0.522,0.224,0.522,0.5
		S21.731,4.023,21.442,4.023z"/>
	<path fill="#8995B6" d="M21.442,7.023H0.035c0,0,0-0.247,0-0.523s0-0.477,0-0.477h21.407c0.289,0,0.522,0.224,0.522,0.5
		S21.731,7.023,21.442,7.023z"/>
	<path fill="#8995B6" d="M21.442,10.023H0.035c0,0,0-0.247,0-0.523s0-0.477,0-0.477h21.407c0.289,0,0.522,0.224,0.522,0.5
		S21.731,10.023,21.442,10.023z"/>
	<path fill="#8995B6" d="M21.442,13.023H0.035c0,0,0-0.247,0-0.523s0-0.477,0-0.477h21.407c0.289,0,0.522,0.224,0.522,0.5
		S21.731,13.023,21.442,13.023z"/>
</g>
</svg>
