<?xml version="1.0" encoding="utf-8"?>
<!-- Generator: Adobe Illustrator 16.0.0, SVG Export Plug-In . SVG Version: 6.00 Build 0)  -->
<!DOCTYPE svg PUBLIC "-//W3C//DTD SVG 1.1//EN" "http://www.w3.org/Graphics/SVG/1.1/DTD/svg11.dtd" [
	<!ENTITY ns_flows "http://ns.adobe.com/Flows/1.0/">
	<!ENTITY ns_extend "http://ns.adobe.com/Extensibility/1.0/">
	<!ENTITY ns_ai "http://ns.adobe.com/AdobeIllustrator/10.0/">
	<!ENTITY ns_graphs "http://ns.adobe.com/Graphs/1.0/">
]>
<svg version="1.1" id="Layer_1" xmlns:x="&ns_extend;" xmlns:i="&ns_ai;" xmlns:graph="&ns_graphs;"
	 xmlns="http://www.w3.org/2000/svg" xmlns:xlink="http://www.w3.org/1999/xlink" xmlns:a="http://ns.adobe.com/AdobeSVGViewerExtensions/3.0/"
	 x="0px" y="0px" width="32px" height="24px" viewBox="98.347 48.941 32 24" enable-background="new 98.347 48.941 32 24"
	 xml:space="preserve">
<rect x="98.347" y="48.941" fill="#5A87EA" width="32" height="24"/>
<g>
	<polyline fill="#FFFFFF" points="126.32,60.5 126.32,61.5 117,61.5 117,60.5 	"/>
	<rect x="117" y="63.203" fill="#FFFFFF" width="9.32" height="1"/>
	<rect x="117" y="65.703" fill="#FFFFFF" width="9.32" height="1"/>
</g>
<g>
	<rect x="114.347" y="54.785" fill="#FFFFFF" width="11.973" height="1.528"/>
</g>
<g>
	<path fill="#FFFFFF" d="M107.709,60.744c1.645,0,2.979-1.335,2.979-2.979c0-1.645-1.335-2.979-2.979-2.979
		s-2.979,1.335-2.979,2.979C104.73,59.408,106.065,60.744,107.709,60.744"/>
	<path fill="#FFFFFF" d="M107.709,62.234c-1.987,0-5.959,0.994-5.959,2.979v1.49h11.918v-1.49
		C113.668,63.229,109.696,62.234,107.709,62.234"/>
</g>
</svg>
