<?xml version="1.0" encoding="utf-8"?>
<!-- Generator: Adobe Illustrator 16.0.0, SVG Export Plug-In . SVG Version: 6.00 Build 0)  -->
<!DOCTYPE svg PUBLIC "-//W3C//DTD SVG 1.1//EN" "http://www.w3.org/Graphics/SVG/1.1/DTD/svg11.dtd" [
	<!ENTITY ns_flows "http://ns.adobe.com/Flows/1.0/">
	<!ENTITY ns_extend "http://ns.adobe.com/Extensibility/1.0/">
	<!ENTITY ns_ai "http://ns.adobe.com/AdobeIllustrator/10.0/">
	<!ENTITY ns_graphs "http://ns.adobe.com/Graphs/1.0/">
]>
<svg version="1.1" id="Layer_1" xmlns:x="&ns_extend;" xmlns:i="&ns_ai;" xmlns:graph="&ns_graphs;"
	 xmlns="http://www.w3.org/2000/svg" xmlns:xlink="http://www.w3.org/1999/xlink" xmlns:a="http://ns.adobe.com/AdobeSVGViewerExtensions/3.0/"
	 x="0px" y="0px" width="26px" height="22px" viewBox="0 0 26 22" enable-background="new 0 0 26 22" xml:space="preserve">
<g>
	<g>
		<g>
			<path fill="#8995B6" d="M25.541,8.083l-2.297-1.874c-0.007-0.006-0.016-0.01-0.021-0.017l-0.289-0.219l-2.006-1.524
				c-0.149-0.114-0.328-0.172-0.509-0.172c-0.126,0-0.253,0.029-0.368,0.086c-0.285,0.143-0.464,0.431-0.464,0.748v1.821h-4.238
				c-0.712,0-1.286,0.574-1.286,1.282v1.028c0,0.71,0.574,1.285,1.286,1.285h4.238v1.82v0.001c0,0.462,0.372,0.835,0.833,0.835
				c0.213,0,0.404-0.078,0.553-0.208l1.961-1.49l0.289-0.219c0.006-0.007,0.015-0.013,0.021-0.019l2.297-1.872
				c0.192-0.16,0.306-0.397,0.306-0.647C25.847,8.479,25.733,8.243,25.541,8.083z"/>
		</g>
	</g>
	<g>
		<path fill="#8995B6" d="M15.54,12.349v-0.656h-3.072c-1.353,0-2.45-1.099-2.45-2.449V8.215c0-1.35,1.098-2.447,2.45-2.447h3.072
			V5.111c0-0.76,0.424-1.445,1.118-1.795c0.272-0.133,0.576-0.204,0.879-0.204c0.399,0,0.787,0.136,1.116,0.358V2.062
			C18.653,0.924,17.729,0,16.591,0h-6.016H8.231H2.216C1.077,0,0.153,0.924,0.153,2.062v17.875C0.153,21.076,1.077,22,2.216,22
			h14.375c1.139,0,2.062-0.924,2.062-2.062v-5.937c-0.33,0.222-0.714,0.348-1.114,0.348C16.438,14.349,15.54,13.452,15.54,12.349z
			 M7.346,17.504c-0.269,0.236-0.637,0.354-1.104,0.354h-0.74v1.475H4.686v-4.067h1.557c0.467,0,0.835,0.119,1.104,0.357
			c0.268,0.239,0.402,0.553,0.402,0.941C7.748,16.954,7.613,17.267,7.346,17.504z M11.32,17.638c0,0.499-0.161,0.906-0.483,1.222
			c-0.322,0.316-0.731,0.474-1.229,0.474H8.188v-4.067h1.419c0.498,0,0.907,0.159,1.229,0.477s0.483,0.725,0.483,1.222V17.638z
			 M14.492,15.895h-1.846v1.12h1.562v0.629h-1.562v1.689H11.83v-4.067h2.662V15.895z"/>
		<path fill="#8995B6" d="M6.242,15.895h-0.74v1.335h0.74c0.227,0,0.399-0.062,0.517-0.186s0.176-0.281,0.176-0.474
			c0-0.195-0.059-0.357-0.175-0.484C6.644,15.958,6.471,15.895,6.242,15.895z"/>
		<path fill="#8995B6" d="M9.607,15.895H9.005v2.812h0.603c0.269,0,0.484-0.1,0.648-0.3s0.246-0.457,0.246-0.77v-0.679
			c0-0.312-0.082-0.566-0.246-0.766S9.876,15.895,9.607,15.895z"/>
	</g>
</g>
</svg>
