<?xml version="1.0" encoding="utf-8"?>
<!-- Generator: Adobe Illustrator 16.0.0, SVG Export Plug-In . SVG Version: 6.00 Build 0)  -->
<!DOCTYPE svg PUBLIC "-//W3C//DTD SVG 1.1//EN" "http://www.w3.org/Graphics/SVG/1.1/DTD/svg11.dtd" [
	<!ENTITY ns_flows "http://ns.adobe.com/Flows/1.0/">
	<!ENTITY ns_extend "http://ns.adobe.com/Extensibility/1.0/">
	<!ENTITY ns_ai "http://ns.adobe.com/AdobeIllustrator/10.0/">
	<!ENTITY ns_graphs "http://ns.adobe.com/Graphs/1.0/">
]>
<svg version="1.1" id="Layer_1" xmlns:x="&ns_extend;" xmlns:i="&ns_ai;" xmlns:graph="&ns_graphs;"
	 xmlns="http://www.w3.org/2000/svg" xmlns:xlink="http://www.w3.org/1999/xlink" xmlns:a="http://ns.adobe.com/AdobeSVGViewerExtensions/3.0/"
	 x="0px" y="0px" width="20px" height="13px" viewBox="0 0 20 13" enable-background="new 0 0 20 13" xml:space="preserve">
<g>
	<path fill="#8995B6" d="M19.5,1.023h-19C0.224,1.023,0,0.8,0,0.523s0.224-0.5,0.5-0.5h19c0.276,0,0.5,0.224,0.5,0.5
		S19.776,1.023,19.5,1.023z"/>
	<path fill="#8995B6" d="M16.5,4.023h-16C0.224,4.023,0,3.8,0,3.523s0.224-0.5,0.5-0.5h16c0.276,0,0.5,0.224,0.5,0.5
		S16.776,4.023,16.5,4.023z"/>
	<path fill="#8995B6" d="M18.5,7.023h-18C0.224,7.023,0,6.8,0,6.523s0.224-0.5,0.5-0.5h18c0.276,0,0.5,0.224,0.5,0.5
		S18.776,7.023,18.5,7.023z"/>
	<path fill="#8995B6" d="M14.5,10.023h-14c-0.276,0-0.5-0.224-0.5-0.5s0.224-0.5,0.5-0.5h14c0.276,0,0.5,0.224,0.5,0.5
		S14.776,10.023,14.5,10.023z"/>
	<path fill="#8995B6" d="M19.5,13.023h-19c-0.276,0-0.5-0.224-0.5-0.5s0.224-0.5,0.5-0.5h19c0.276,0,0.5,0.224,0.5,0.5
		S19.776,13.023,19.5,13.023z"/>
</g>
</svg>
