<?xml version="1.0" encoding="utf-8"?>
<!-- Generator: Adobe Illustrator 16.0.0, SVG Export Plug-In . SVG Version: 6.00 Build 0)  -->
<!DOCTYPE svg PUBLIC "-//W3C//DTD SVG 1.1//EN" "http://www.w3.org/Graphics/SVG/1.1/DTD/svg11.dtd" [
	<!ENTITY ns_flows "http://ns.adobe.com/Flows/1.0/">
	<!ENTITY ns_extend "http://ns.adobe.com/Extensibility/1.0/">
	<!ENTITY ns_ai "http://ns.adobe.com/AdobeIllustrator/10.0/">
	<!ENTITY ns_graphs "http://ns.adobe.com/Graphs/1.0/">
]>
<svg version="1.1" id="Layer_1" xmlns:x="&ns_extend;" xmlns:i="&ns_ai;" xmlns:graph="&ns_graphs;"
	 xmlns="http://www.w3.org/2000/svg" xmlns:xlink="http://www.w3.org/1999/xlink" xmlns:a="http://ns.adobe.com/AdobeSVGViewerExtensions/3.0/"
	 x="0px" y="0px" width="40px" height="32px" viewBox="104 41.25 40 32" enable-background="new 104 41.25 40 32"
	 xml:space="preserve">
<g>
	<g>
		<g>
			<g>
				<path fill="#FFFFFF" d="M115.75,49.875c0,2.206-1.794,4-4,4H104V70.25c0,1.657,1.343,3,3,3h34c1.656,0,3-1.343,3-3v-26
					c0-1.657-1.344-3-3-3h-25.25V49.875z"/>
			</g>
		</g>
		<path fill="#EAE8E9" d="M110.527,51.042c1.396,0,2.527-1.131,2.527-2.527V41.25L104,51.042H110.527z"/>
	</g>
	<path fill="#F45B92" d="M125.3,54.05v1.9h1.901c0.717,0,1.3,0.583,1.3,1.3s-0.583,1.3-1.3,1.3H125.3v1.9c0,0.717-0.583,1.3-1.3,1.3
		s-1.3-0.583-1.3-1.3v-1.9h-1.9c-0.717,0-1.3-0.583-1.3-1.3s0.583-1.3,1.3-1.3h1.9v-1.9c0-0.717,0.583-1.3,1.3-1.3
		S125.3,53.333,125.3,54.05z"/>
</g>
</svg>
