<?xml version="1.0" encoding="utf-8"?>
<!-- Generator: Adobe Illustrator 16.0.0, SVG Export Plug-In . SVG Version: 6.00 Build 0)  -->
<!DOCTYPE svg PUBLIC "-//W3C//DTD SVG 1.1//EN" "http://www.w3.org/Graphics/SVG/1.1/DTD/svg11.dtd" [
	<!ENTITY ns_flows "http://ns.adobe.com/Flows/1.0/">
	<!ENTITY ns_extend "http://ns.adobe.com/Extensibility/1.0/">
	<!ENTITY ns_ai "http://ns.adobe.com/AdobeIllustrator/10.0/">
	<!ENTITY ns_graphs "http://ns.adobe.com/Graphs/1.0/">
]>
<svg version="1.1" id="Layer_1" xmlns:x="&ns_extend;" xmlns:i="&ns_ai;" xmlns:graph="&ns_graphs;"
	 xmlns="http://www.w3.org/2000/svg" xmlns:xlink="http://www.w3.org/1999/xlink" xmlns:a="http://ns.adobe.com/AdobeSVGViewerExtensions/3.0/"
	 x="0px" y="0px" width="33.432px" height="33.257px" viewBox="0 0 33.432 33.257" enable-background="new 0 0 33.432 33.257"
	 xml:space="preserve">
<g>
	<g>
		<rect x="0.622" y="0.534" fill="#FFFFFF" width="32.188" height="32.188"/>
		<g>
			<polyline fill="none" stroke="#57617D" stroke-linecap="round" stroke-linejoin="round" points="32.81,31.723 32.81,32.723 
				31.81,32.723 			"/>
			
				<line fill="none" stroke="#57617D" stroke-linecap="round" stroke-linejoin="round" stroke-dasharray="2.1563,4.3126" x1="27.498" y1="32.723" x2="3.778" y2="32.723"/>
			<polyline fill="none" stroke="#57617D" stroke-linecap="round" stroke-linejoin="round" points="1.622,32.723 0.622,32.723 
				0.622,31.723 			"/>
			
				<line fill="none" stroke="#57617D" stroke-linecap="round" stroke-linejoin="round" stroke-dasharray="2.1563,4.3126" x1="0.622" y1="27.41" x2="0.622" y2="3.69"/>
			<polyline fill="none" stroke="#57617D" stroke-linecap="round" stroke-linejoin="round" points="0.622,1.534 0.622,0.534 
				1.622,0.534 			"/>
			
				<line fill="none" stroke="#57617D" stroke-linecap="round" stroke-linejoin="round" stroke-dasharray="2.1563,4.3126" x1="5.934" y1="0.534" x2="29.654" y2="0.534"/>
			<polyline fill="none" stroke="#57617D" stroke-linecap="round" stroke-linejoin="round" points="31.81,0.534 32.81,0.534 
				32.81,1.534 			"/>
			
				<line fill="none" stroke="#57617D" stroke-linecap="round" stroke-linejoin="round" stroke-dasharray="2.1563,4.3126" x1="32.81" y1="5.847" x2="32.81" y2="29.566"/>
		</g>
	</g>
	<g>
		<path fill="#57617D" stroke="#57617D" stroke-miterlimit="10" d="M12.149,25.772h3.148V7.483h-1.646
			c-0.378,0-0.804,0.034-1.276,0.1c-0.472,0.066-0.95,0.251-1.432,0.553c-0.482,0.303-0.946,0.78-1.39,1.433
			c-0.445,0.652-0.828,1.556-1.149,2.708H8.094V7.087h17.244v5.189h-0.312c-0.322-1.152-0.705-2.056-1.148-2.708
			c-0.445-0.652-0.908-1.13-1.39-1.433c-0.482-0.302-0.96-0.486-1.432-0.553c-0.473-0.065-0.898-0.1-1.276-0.1h-1.645v18.289h3.147
			v0.397h-9.132V25.772z"/>
	</g>
</g>
</svg>
