<?xml version="1.0" encoding="utf-8"?>
<!-- Generator: Adobe Illustrator 16.0.0, SVG Export Plug-In . SVG Version: 6.00 Build 0)  -->
<!DOCTYPE svg PUBLIC "-//W3C//DTD SVG 1.1//EN" "http://www.w3.org/Graphics/SVG/1.1/DTD/svg11.dtd" [
	<!ENTITY ns_flows "http://ns.adobe.com/Flows/1.0/">
	<!ENTITY ns_extend "http://ns.adobe.com/Extensibility/1.0/">
	<!ENTITY ns_ai "http://ns.adobe.com/AdobeIllustrator/10.0/">
	<!ENTITY ns_graphs "http://ns.adobe.com/Graphs/1.0/">
]>
<svg version="1.1" id="Layer_1" xmlns:x="&ns_extend;" xmlns:i="&ns_ai;" xmlns:graph="&ns_graphs;"
	 xmlns="http://www.w3.org/2000/svg" xmlns:xlink="http://www.w3.org/1999/xlink" xmlns:a="http://ns.adobe.com/AdobeSVGViewerExtensions/3.0/"
	 x="0px" y="0px" width="17px" height="14px" viewBox="0 0 17 14" enable-background="new 0 0 17 14" xml:space="preserve">
<path fill="#57617D" d="M16.495,13.5c-0.164,0-0.321-0.081-0.416-0.223c-1.893-2.839-5.593-3.335-9.074-3.374V13
	c0,0.202-0.122,0.385-0.309,0.462c-0.186,0.079-0.401,0.035-0.545-0.108l-6-6c-0.195-0.195-0.195-0.512,0-0.707l6-6
	C6.294,0.503,6.509,0.46,6.696,0.538S7.005,0.797,7.005,1v3.146c6.339,0.708,9.583,4.891,9.988,8.803
	c0.023,0.229-0.112,0.444-0.328,0.521C16.609,13.49,16.552,13.5,16.495,13.5z M1.212,7l4.793,4.793V9.4c0-0.276,0.224-0.5,0.5-0.5
	c3.212,0,6.691,0.311,9.069,2.321c-1.08-2.973-4.068-5.704-9.11-6.124C6.204,5.076,6.005,4.859,6.005,4.599V2.207L1.212,7z"/>
</svg>
