<?xml version="1.0" encoding="utf-8"?>
<!-- Generator: Adobe Illustrator 16.0.0, SVG Export Plug-In . SVG Version: 6.00 Build 0)  -->
<!DOCTYPE svg PUBLIC "-//W3C//DTD SVG 1.1//EN" "http://www.w3.org/Graphics/SVG/1.1/DTD/svg11.dtd" [
	<!ENTITY ns_flows "http://ns.adobe.com/Flows/1.0/">
	<!ENTITY ns_extend "http://ns.adobe.com/Extensibility/1.0/">
	<!ENTITY ns_ai "http://ns.adobe.com/AdobeIllustrator/10.0/">
	<!ENTITY ns_graphs "http://ns.adobe.com/Graphs/1.0/">
]>
<svg version="1.1" id="Layer_1" xmlns:x="&ns_extend;" xmlns:i="&ns_ai;" xmlns:graph="&ns_graphs;"
	 xmlns="http://www.w3.org/2000/svg" xmlns:xlink="http://www.w3.org/1999/xlink" xmlns:a="http://ns.adobe.com/AdobeSVGViewerExtensions/3.0/"
	 x="0px" y="0px" width="10.377px" height="11.934px" viewBox="0 0 10.377 11.934" enable-background="new 0 0 10.377 11.934"
	 xml:space="preserve">
<g>
	<g>
		<rect x="1.06" y="3.412" fill="none" width="8.258" height="3.91"/>
		<polygon fill="none" points="5.451,1.059 5.018,1.059 4.447,2.352 6.12,2.352 		"/>
		<path fill="#DEE7FB" d="M9.847,2.352H7.311L6.243,0.286C6.152,0.109,5.972,0,5.773,0h-1.1c-0.21,0-0.4,0.124-0.485,0.314
			L3.291,2.352H0.529C0.237,2.352,0,2.59,0,2.882v4.969c0,0.292,0.237,0.53,0.529,0.53h1.156l-1.062,2.836
			c-0.05,0.133-0.045,0.277,0.014,0.407c0.059,0.129,0.165,0.228,0.291,0.272c0.249,0.105,0.584-0.037,0.687-0.308l1.201-3.208
			h4.676l1.202,3.207c0.076,0.206,0.275,0.346,0.495,0.346c0.067,0,0.131-0.013,0.185-0.034c0.132-0.048,0.237-0.146,0.296-0.274
			c0.06-0.129,0.065-0.273,0.015-0.407L8.623,8.381h1.224c0.292,0,0.53-0.238,0.53-0.53V2.882C10.377,2.59,10.139,2.352,9.847,2.352
			z M5.018,1.059h0.433L6.12,2.352H4.447L5.018,1.059z M9.317,7.322H1.06v-3.91h8.258V7.322z"/>
	</g>
</g>
</svg>
