<?xml version="1.0" encoding="utf-8"?>
<!-- Generator: Adobe Illustrator 16.0.0, SVG Export Plug-In . SVG Version: 6.00 Build 0)  -->
<!DOCTYPE svg PUBLIC "-//W3C//DTD SVG 1.1//EN" "http://www.w3.org/Graphics/SVG/1.1/DTD/svg11.dtd" [
	<!ENTITY ns_flows "http://ns.adobe.com/Flows/1.0/">
	<!ENTITY ns_extend "http://ns.adobe.com/Extensibility/1.0/">
	<!ENTITY ns_ai "http://ns.adobe.com/AdobeIllustrator/10.0/">
	<!ENTITY ns_graphs "http://ns.adobe.com/Graphs/1.0/">
]>
<svg version="1.1" id="Layer_1" xmlns:x="&ns_extend;" xmlns:i="&ns_ai;" xmlns:graph="&ns_graphs;"
	 xmlns="http://www.w3.org/2000/svg" xmlns:xlink="http://www.w3.org/1999/xlink" xmlns:a="http://ns.adobe.com/AdobeSVGViewerExtensions/3.0/"
	 x="0px" y="0px" width="24px" height="22px" viewBox="0 0 24 22" enable-background="new 0 0 24 22" xml:space="preserve">
<g>
	<g>
		<g>
			<path fill="#F03A7C" d="M23.566,8.083l-2.297-1.875c-0.007-0.006-0.016-0.01-0.021-0.016l-0.289-0.219l-2.006-1.524
				c-0.149-0.115-0.328-0.172-0.509-0.172c-0.126,0-0.253,0.029-0.368,0.086c-0.285,0.142-0.464,0.431-0.464,0.748v1.821h-4.238
				c-0.712,0-1.286,0.575-1.286,1.282v1.028c0,0.71,0.574,1.286,1.286,1.286h4.238v1.82v0.001c0,0.461,0.372,0.834,0.833,0.834
				c0.213,0,0.404-0.078,0.553-0.208l1.961-1.49l0.289-0.219c0.006-0.007,0.015-0.013,0.021-0.019l2.297-1.872
				c0.192-0.16,0.306-0.397,0.306-0.647C23.872,8.478,23.758,8.243,23.566,8.083z"/>
		</g>
	</g>
	<g>
		<path fill="#F03A7C" d="M15.515,12.348v-0.656h-3.072c-1.353,0-2.45-1.099-2.45-2.449V8.214c0-1.349,1.098-2.447,2.45-2.447h3.072
			V5.111c0-0.76,0.424-1.445,1.118-1.795c0.272-0.132,0.576-0.204,0.879-0.204c0.399,0,0.787,0.135,1.116,0.358V2.062
			C18.628,0.924,17.705,0,16.566,0H10.55H8.207H2.191C1.052,0,0.128,0.924,0.128,2.062v17.875C0.128,21.076,1.052,22,2.191,22
			h14.375c1.139,0,2.062-0.924,2.062-2.062v-5.937c-0.33,0.222-0.714,0.348-1.114,0.348C16.413,14.349,15.515,13.452,15.515,12.348z
			 M7.321,17.503c-0.269,0.236-0.637,0.354-1.104,0.354h-0.74v1.475H4.661v-4.067h1.557c0.467,0,0.835,0.119,1.104,0.357
			c0.268,0.239,0.402,0.552,0.402,0.941C7.723,16.954,7.588,17.267,7.321,17.503z M11.295,17.637c0,0.499-0.161,0.907-0.483,1.222
			c-0.322,0.316-0.731,0.474-1.229,0.474H8.164v-4.067h1.419c0.498,0,0.907,0.159,1.229,0.476c0.322,0.318,0.483,0.725,0.483,1.222
			V17.637z M14.467,15.894h-1.846v1.12h1.562v0.629h-1.562v1.69h-0.816v-4.067h2.662V15.894z"/>
		<path fill="#F03A7C" d="M6.217,15.894h-0.74v1.335h0.74c0.227,0,0.399-0.062,0.517-0.186C6.851,16.92,6.91,16.762,6.91,16.57
			c0-0.196-0.059-0.357-0.175-0.485S6.446,15.894,6.217,15.894z"/>
		<path fill="#F03A7C" d="M9.583,15.894H8.98v2.813h0.603c0.269,0,0.484-0.1,0.648-0.3s0.246-0.457,0.246-0.77v-0.679
			c0-0.311-0.082-0.566-0.246-0.766C10.067,15.994,9.851,15.894,9.583,15.894z"/>
	</g>
</g>
</svg>
