<?xml version="1.0" encoding="utf-8"?>
<!-- Generator: Adobe Illustrator 16.0.0, SVG Export Plug-In . SVG Version: 6.00 Build 0)  -->
<!DOCTYPE svg PUBLIC "-//W3C//DTD SVG 1.1//EN" "http://www.w3.org/Graphics/SVG/1.1/DTD/svg11.dtd" [
	<!ENTITY ns_flows "http://ns.adobe.com/Flows/1.0/">
	<!ENTITY ns_extend "http://ns.adobe.com/Extensibility/1.0/">
	<!ENTITY ns_ai "http://ns.adobe.com/AdobeIllustrator/10.0/">
	<!ENTITY ns_graphs "http://ns.adobe.com/Graphs/1.0/">
]>
<svg version="1.1" id="Layer_1" xmlns:x="&ns_extend;" xmlns:i="&ns_ai;" xmlns:graph="&ns_graphs;"
	 xmlns="http://www.w3.org/2000/svg" xmlns:xlink="http://www.w3.org/1999/xlink" xmlns:a="http://ns.adobe.com/AdobeSVGViewerExtensions/3.0/"
	 x="0px" y="0px" width="25.785px" height="26.875px" viewBox="0 0 25.785 26.875" enable-background="new 0 0 25.785 26.875"
	 xml:space="preserve">
<g>
	<g>
		<path fill="#DEE7FB" d="M5.94,5.783v4.721h0.909l0.076-0.284c0.233-0.833,0.51-1.487,0.825-1.949
			c0.305-0.45,0.625-0.783,0.946-0.983c0.32-0.2,0.636-0.323,0.941-0.368c0.344-0.044,0.654-0.072,0.92-0.072h0.875v13.179h-2.4
			v1.062h7.722v-1.062h-2.4V6.848h0.873c0.267,0,0.573,0.027,0.92,0.072c0.306,0.044,0.623,0.168,0.942,0.368
			c0.32,0.2,0.639,0.534,0.946,0.983c0.311,0.462,0.591,1.117,0.825,1.952l0.077,0.281h0.908V5.783H5.94z"/>
	</g>
	<path fill="#DEE7FB" d="M21.111,26.086h-1.644c-0.211,0-0.381-0.173-0.381-0.378c0-0.217,0.17-0.385,0.381-0.385h1.644
		c0.211,0,0.382,0.168,0.382,0.385C21.493,25.914,21.322,26.086,21.111,26.086z M16.179,26.086h-1.642
		c-0.211,0-0.382-0.173-0.382-0.378c0-0.217,0.17-0.385,0.382-0.385h1.642c0.211,0,0.381,0.168,0.381,0.385
		C16.561,25.914,16.39,26.086,16.179,26.086z M11.249,26.086H9.605c-0.211,0-0.381-0.173-0.381-0.378
		c0-0.217,0.17-0.385,0.381-0.385h1.643c0.211,0,0.381,0.168,0.381,0.385C11.63,25.914,11.459,26.086,11.249,26.086z M6.318,26.086
		H4.675c-0.211,0-0.381-0.173-0.381-0.378c0-0.217,0.17-0.385,0.381-0.385h1.643c0.212,0,0.381,0.168,0.381,0.385
		C6.699,25.914,6.53,26.086,6.318,26.086z"/>
	<path fill="#DEE7FB" d="M1.388,26.086H0.625c-0.21,0-0.38-0.173-0.38-0.378v-0.763c0-0.215,0.17-0.385,0.38-0.385
		c0.211,0,0.382,0.17,0.382,0.385v0.378h0.381c0.21,0,0.38,0.168,0.38,0.385C1.769,25.914,1.598,26.086,1.388,26.086z"/>
	<path fill="#DEE7FB" d="M21.11,1.552h-1.643c-0.211,0-0.381-0.168-0.381-0.383c0-0.208,0.17-0.38,0.381-0.38h1.643
		c0.212,0,0.381,0.173,0.381,0.38C21.491,1.384,21.322,1.552,21.11,1.552z M16.179,1.552h-1.642c-0.211,0-0.382-0.168-0.382-0.383
		c0-0.208,0.17-0.38,0.382-0.38h1.642c0.211,0,0.381,0.173,0.381,0.38C16.561,1.384,16.39,1.552,16.179,1.552z M11.249,1.552H9.605
		c-0.211,0-0.381-0.168-0.381-0.383c0-0.208,0.17-0.38,0.381-0.38h1.643c0.211,0,0.381,0.173,0.381,0.38
		C11.63,1.384,11.459,1.552,11.249,1.552z M6.318,1.552H4.675c-0.211,0-0.381-0.168-0.381-0.383c0-0.208,0.17-0.38,0.381-0.38h1.643
		c0.211,0,0.381,0.173,0.381,0.38C6.699,1.384,6.529,1.552,6.318,1.552z"/>
	<path fill="#DEE7FB" d="M0.625,22.038c-0.21,0-0.38-0.173-0.38-0.383v-1.64c0-0.215,0.17-0.383,0.38-0.383
		c0.211,0,0.382,0.168,0.382,0.383v1.64C1.007,21.865,0.836,22.038,0.625,22.038z M0.625,17.107c-0.21,0-0.38-0.17-0.38-0.38v-1.645
		c0-0.21,0.17-0.383,0.38-0.383c0.211,0,0.382,0.173,0.382,0.383v1.645C1.007,16.937,0.836,17.107,0.625,17.107z M0.625,12.176
		c-0.21,0-0.38-0.173-0.38-0.383v-1.645c0-0.208,0.17-0.378,0.38-0.378c0.211,0,0.382,0.17,0.382,0.378v1.645
		C1.007,12.003,0.836,12.176,0.625,12.176z M0.625,7.246c-0.21,0-0.38-0.17-0.38-0.38V5.22c0-0.21,0.17-0.38,0.38-0.38
		c0.211,0,0.382,0.17,0.382,0.38v1.645C1.007,7.075,0.836,7.246,0.625,7.246z"/>
	<path fill="#DEE7FB" d="M25.16,22.038c-0.211,0-0.382-0.173-0.382-0.383V20.01c0-0.21,0.17-0.38,0.382-0.38
		c0.21,0,0.38,0.17,0.38,0.38v1.645C25.54,21.865,25.37,22.038,25.16,22.038z M25.16,17.104c-0.211,0-0.382-0.168-0.382-0.38v-1.643
		c0-0.21,0.17-0.383,0.382-0.383c0.21,0,0.38,0.173,0.38,0.383v1.643C25.54,16.937,25.37,17.104,25.16,17.104z M25.16,12.176
		c-0.211,0-0.382-0.173-0.382-0.383v-1.645c0-0.208,0.17-0.38,0.382-0.38c0.21,0,0.38,0.173,0.38,0.38v1.645
		C25.54,12.003,25.37,12.176,25.16,12.176z M25.16,7.243c-0.211,0-0.382-0.168-0.382-0.378V5.22c0-0.21,0.17-0.38,0.382-0.38
		c0.21,0,0.38,0.17,0.38,0.38v1.645C25.54,7.075,25.37,7.243,25.16,7.243z"/>
	<path fill="#DEE7FB" d="M25.16,2.315c-0.211,0-0.382-0.173-0.382-0.383v-0.38h-0.379c-0.212,0-0.382-0.168-0.382-0.383
		c0-0.208,0.169-0.38,0.382-0.38h0.761c0.21,0,0.38,0.173,0.38,0.38v0.763C25.54,2.142,25.37,2.315,25.16,2.315z"/>
	<path fill="#DEE7FB" d="M0.625,2.315c-0.21,0-0.38-0.173-0.38-0.383V1.169c0-0.208,0.17-0.38,0.38-0.38h0.763
		c0.21,0,0.38,0.173,0.38,0.38c0,0.215-0.17,0.383-0.38,0.383H1.007v0.38C1.007,2.142,0.836,2.315,0.625,2.315z"/>
	<path fill="#DEE7FB" d="M25.16,26.086h-0.761c-0.212,0-0.382-0.173-0.382-0.378c0-0.217,0.169-0.385,0.382-0.385h0.379v-0.378
		c0-0.215,0.17-0.385,0.382-0.385c0.21,0,0.38,0.17,0.38,0.385v0.763C25.54,25.914,25.37,26.086,25.16,26.086z"/>
</g>
</svg>
