<?xml version="1.0" encoding="utf-8"?>
<!-- Generator: Adobe Illustrator 16.0.0, SVG Export Plug-In . SVG Version: 6.00 Build 0)  -->
<!DOCTYPE svg PUBLIC "-//W3C//DTD SVG 1.1//EN" "http://www.w3.org/Graphics/SVG/1.1/DTD/svg11.dtd" [
	<!ENTITY ns_flows "http://ns.adobe.com/Flows/1.0/">
	<!ENTITY ns_extend "http://ns.adobe.com/Extensibility/1.0/">
	<!ENTITY ns_ai "http://ns.adobe.com/AdobeIllustrator/10.0/">
	<!ENTITY ns_graphs "http://ns.adobe.com/Graphs/1.0/">
]>
<svg version="1.1" id="Layer_1" xmlns:x="&ns_extend;" xmlns:i="&ns_ai;" xmlns:graph="&ns_graphs;"
	 xmlns="http://www.w3.org/2000/svg" xmlns:xlink="http://www.w3.org/1999/xlink" xmlns:a="http://ns.adobe.com/AdobeSVGViewerExtensions/3.0/"
	 x="0px" y="0px" width="39.666px" height="39.666px" viewBox="104.167 31.845 39.666 39.666"
	 enable-background="new 104.167 31.845 39.666 39.666" xml:space="preserve">
<path fill="#F45B92" d="M124,71.511c-10.936,0-19.833-8.896-19.833-19.833S113.064,31.845,124,31.845
	c10.936,0,19.833,8.897,19.833,19.833S134.936,71.511,124,71.511z M124,32.845c-10.385,0-18.833,8.448-18.833,18.833
	c0,10.384,8.448,18.833,18.833,18.833s18.833-8.448,18.833-18.833C142.833,41.293,134.385,32.845,124,32.845z"/>
<g>
	<path fill="#F45B92" d="M122.409,53.178c0.006-0.83,0.155-1.453,0.447-1.871c0.293-0.418,0.826-0.896,1.603-1.439
		c0.398-0.252,0.714-0.561,0.943-0.932c0.229-0.369,0.345-0.797,0.345-1.279c0-0.502-0.134-0.9-0.401-1.199
		c-0.269-0.299-0.65-0.447-1.146-0.447c-0.399,0-0.733,0.123-1.002,0.367c-0.269,0.244-0.409,0.607-0.421,1.092h-2.944l-0.018-0.055
		c-0.018-1.24,0.377-2.172,1.186-2.797c0.809-0.623,1.875-0.934,3.199-0.934c1.42,0,2.537,0.357,3.352,1.072
		c0.812,0.717,1.221,1.684,1.221,2.9c0,0.746-0.222,1.432-0.666,2.059c-0.443,0.625-1.01,1.117-1.695,1.477
		c-0.383,0.25-0.641,0.52-0.773,0.809c-0.135,0.289-0.201,0.682-0.201,1.178L122.409,53.178L122.409,53.178z M125.425,56.9h-3.007
		v-2.416h3.007V56.9z"/>
	<path fill="#F45B92" d="M119.653,58.689v-0.896h9.333v0.896H119.653z"/>
</g>
</svg>
