<?xml version="1.0" encoding="utf-8"?>
<!-- Generator: Adobe Illustrator 16.0.0, SVG Export Plug-In . SVG Version: 6.00 Build 0)  -->
<!DOCTYPE svg PUBLIC "-//W3C//DTD SVG 1.1//EN" "http://www.w3.org/Graphics/SVG/1.1/DTD/svg11.dtd">
<svg version="1.1" id="Layer_1" xmlns="http://www.w3.org/2000/svg" xmlns:xlink="http://www.w3.org/1999/xlink" x="0px" y="0px"
	 width="159.397px" height="39.683px" viewBox="0 0 159.397 39.683" enable-background="new 0 0 159.397 39.683"
	 xml:space="preserve">
<g>
	<polygon points="0,6.318 17.721,6.318 17.721,10.105 11.092,10.105 11.092,28.875 6.73,28.875 6.73,9.97 0,9.97 	"/>
	<path d="M112.766,6.058h4.592v4.924h3.928v3.65h-4.059v5.532v3.099c0,0-0.146,1.853,1.236,1.853c1.577,0,2.324,0,2.324,0v3.763
		h-4.371c0,0-3.567,0.248-3.567-3.818c0-4.065,0-10.455,0-10.455h-2.572v-3.707h2.489V6.058z"/>
	<path d="M37.002,10.951h4.328v1.725c0,0,1.422-2.029,4.837-2.029c2.942,0,4.565,2.537,4.565,2.537s1.252-2.436,5.479-2.436
		c4.229,0,5.986,2.842,5.986,5.986c0,3.146,0,12.006,0,12.006h-4.43V18.222c0,0,0.305-3.822-2.942-3.822
		c-1.657,0-2.976,1.549-2.976,3.18c0,1.59,0,11.262,0,11.262h-4.432V17.986c0,0,0.17-3.518-2.84-3.518
		c-1.59,0-3.111,1.285-3.111,3.957s0,10.449,0,10.449h-4.432L37.002,10.951z"/>
	<rect x="85.182" y="6.058" width="4.42" height="23.367"/>
	<path d="M25.699,10.515c-8.764,0-8.703,8.208-8.703,9.258c0,1.049,0.094,9.102,8.549,9.102c7.621,0,8.055-6.201,8.055-6.201h-4.414
		c0,0-0.493,2.499-3.609,2.499c-0.957,0-4.074-0.277-4.074-4.536h12.375C33.877,20.636,34.463,10.515,25.699,10.515z M21.688,17.643
		c0,0,0.092-3.579,3.826-3.579s3.734,3.549,3.734,3.549L21.688,17.643z"/>
	<path d="M131.938,10.515c-8.764,0-8.702,8.208-8.702,9.258c0,1.049,0.093,9.102,8.548,9.102c7.622,0,8.054-6.201,8.054-6.201
		h-4.412c0,0-0.494,2.499-3.61,2.499c-0.957,0-4.073-0.277-4.073-4.536h12.374C140.116,20.636,140.702,10.515,131.938,10.515z
		 M127.927,17.643c0,0,0.093-3.579,3.827-3.579s3.734,3.549,3.734,3.549L127.927,17.643z"/>
	<path d="M74.959,10.646c-3.01,0-5.141,1.928-5.141,1.928v-1.623h-4.396l0.033,24.046h4.396v-7.914c0,0,1.691,1.928,5.006,1.928
		c4.87,0,7.508-3.28,7.508-10.011C82.365,12.27,77.969,10.646,74.959,10.646z M73.707,25.291c-2.976,0-3.99-2.367-3.99-5.885
		s1.556-5.039,4.126-5.039c1.86,0,4.16,1.318,4.16,5.107C78.003,23.261,76.684,25.291,73.707,25.291z"/>
	<path d="M101.775,10.478c-3.01,0-8.455-0.542-8.455,6.053h4.16c0,0-0.236-2.57,3.449-2.57c3.348,0,3.18,3.18,3.18,3.18
		s-3.011-0.034-7.812,1.082c-3.957,1.217-3.924,4.329-3.924,5.174c0,1.219,0.947,5.479,6.426,5.479c3.687,0,5.412-2.13,5.412-2.13
		v1.826h4.159V16.632C108.37,16.632,109.08,10.478,101.775,10.478z M99.746,25.459c-0.508,0-2.908-0.169-2.908-2.13
		c0-2.977,7.17-2.875,7.17-2.875C104.008,25.156,100.828,25.459,99.746,25.459z"/>
	<path d="M143.16,10.996h4.104v2.21h0.507c0.271-0.835,1.747-2.21,3.325-2.21c0.744,0,2.053,0,2.053,0v4.374h-2.143
		c0,0-3.404,0.091-3.404,3.382c0,2.098,0,10.123,0,10.123h-4.419L143.16,10.996z"/>
	<polygon points="159.397,28.166 155.34,28.166 155.34,35.625 148.154,35.625 148.154,39.683 159.397,39.683 	"/>
	<rect x="21.219" width="8.443" height="4.059"/>
</g>
</svg>
