<?xml version="1.0" encoding="utf-8"?>
<!-- Generator: Adobe Illustrator 16.0.0, SVG Export Plug-In . SVG Version: 6.00 Build 0)  -->
<!DOCTYPE svg PUBLIC "-//W3C//DTD SVG 1.1//EN" "http://www.w3.org/Graphics/SVG/1.1/DTD/svg11.dtd" [
	<!ENTITY ns_flows "http://ns.adobe.com/Flows/1.0/">
	<!ENTITY ns_extend "http://ns.adobe.com/Extensibility/1.0/">
	<!ENTITY ns_ai "http://ns.adobe.com/AdobeIllustrator/10.0/">
	<!ENTITY ns_graphs "http://ns.adobe.com/Graphs/1.0/">
]>
<svg version="1.1" id="Layer_1" xmlns:x="&ns_extend;" xmlns:i="&ns_ai;" xmlns:graph="&ns_graphs;"
	 xmlns="http://www.w3.org/2000/svg" xmlns:xlink="http://www.w3.org/1999/xlink" xmlns:a="http://ns.adobe.com/AdobeSVGViewerExtensions/3.0/"
	 x="0px" y="0px" width="159.399px" height="39.684px" viewBox="0 0 159.399 39.684" enable-background="new 0 0 159.399 39.684"
	 xml:space="preserve">
<g>
	<g>
		<polygon fill="#8995B6" points="0,6.317 17.721,6.317 17.721,10.105 11.092,10.105 11.092,28.875 6.73,28.875 6.73,9.97 0,9.97 		
			"/>
		<path fill="#8995B6" d="M112.766,6.059h4.592v4.923h3.928v3.651h-4.059v5.532v3.098c0,0-0.146,1.853,1.236,1.853
			c1.578,0,2.324,0,2.324,0v3.762h-4.371c0,0-3.566,0.249-3.566-3.818c0-4.065,0-10.455,0-10.455h-2.572v-3.707h2.488V6.059z"/>
		<path fill="#8995B6" d="M37.002,10.951h4.328v1.725c0,0,1.422-2.029,4.837-2.029c2.942,0,4.565,2.537,4.565,2.537
			s1.252-2.435,5.479-2.435c4.229,0,5.986,2.841,5.986,5.986c0,3.145,0,12.005,0,12.005h-4.43V18.222c0,0,0.305-3.822-2.942-3.822
			c-1.657,0-2.976,1.549-2.976,3.179c0,1.589,0,11.262,0,11.262h-4.432V17.985c0,0,0.17-3.517-2.84-3.517
			c-1.59,0-3.111,1.285-3.111,3.957c0,2.671,0,10.45,0,10.45h-4.432L37.002,10.951z"/>
		<rect x="85.182" y="6.059" fill="#8995B6" width="4.42" height="23.366"/>
		<path fill="#8995B6" d="M25.7,10.515c-8.764,0-8.703,8.208-8.703,9.258c0,1.049,0.094,9.103,8.549,9.103
			c7.621,0,8.055-6.202,8.055-6.202h-4.414c0,0-0.493,2.5-3.609,2.5c-0.957,0-4.074-0.277-4.074-4.536h12.375
			C33.877,20.636,34.463,10.515,25.7,10.515z M21.688,17.643c0,0,0.092-3.58,3.826-3.58s3.734,3.549,3.734,3.549L21.688,17.643z"/>
		<path fill="#8995B6" d="M131.94,10.515c-8.764,0-8.703,8.208-8.703,9.258c0,1.049,0.094,9.103,8.549,9.103
			c7.621,0,8.053-6.202,8.053-6.202h-4.412c0,0-0.494,2.5-3.609,2.5c-0.957,0-4.074-0.277-4.074-4.536h12.375
			C140.118,20.636,140.704,10.515,131.94,10.515z M127.928,17.643c0,0,0.092-3.58,3.826-3.58s3.734,3.549,3.734,3.549
			L127.928,17.643z"/>
		<path fill="#8995B6" d="M74.959,10.646c-3.01,0-5.141,1.928-5.141,1.928v-1.624h-4.396l0.033,24.046h4.396v-7.914
			c0,0,1.691,1.928,5.006,1.928c4.87,0,7.508-3.28,7.508-10.01S77.969,10.646,74.959,10.646z M73.708,25.291
			c-2.976,0-3.99-2.368-3.99-5.885c0-3.518,1.556-5.039,4.126-5.039c1.86,0,4.16,1.319,4.16,5.107
			C78.003,23.261,76.684,25.291,73.708,25.291z"/>
		<path fill="#8995B6" d="M101.776,10.478c-3.01,0-8.455-0.542-8.455,6.054h4.16c0,0-0.236-2.57,3.449-2.57
			c3.348,0,3.18,3.179,3.18,3.179s-3.011-0.034-7.812,1.083c-3.957,1.217-3.924,4.329-3.924,5.174c0,1.218,0.947,5.479,6.426,5.479
			c3.687,0,5.412-2.13,5.412-2.13v1.826h4.16V16.633C108.372,16.633,109.081,10.478,101.776,10.478z M99.747,25.459
			c-0.508,0-2.908-0.169-2.908-2.13c0-2.977,7.17-2.875,7.17-2.875C104.008,25.155,100.829,25.459,99.747,25.459z"/>
		<path fill="#8995B6" d="M143.161,10.996h4.104v2.209h0.508c0.27-0.834,1.746-2.209,3.324-2.209c0.744,0,2.053,0,2.053,0v4.374
			h-2.143c0,0-3.404,0.091-3.404,3.382c0,2.097,0,10.124,0,10.124h-4.418L143.161,10.996z"/>
	</g>
	<polygon fill="#8995B6" points="159.399,28.166 155.34,28.166 155.34,35.625 148.155,35.625 148.155,39.684 159.399,39.684 	"/>
	<rect x="21.219" fill="#8995B6" width="8.443" height="4.059"/>
</g>
</svg>
