<?xml version="1.0" encoding="utf-8"?>
<!-- Generator: Adobe Illustrator 16.0.0, SVG Export Plug-In . SVG Version: 6.00 Build 0)  -->
<!DOCTYPE svg PUBLIC "-//W3C//DTD SVG 1.1//EN" "http://www.w3.org/Graphics/SVG/1.1/DTD/svg11.dtd">
<svg version="1.1" id="Layer_1" xmlns="http://www.w3.org/2000/svg" xmlns:xlink="http://www.w3.org/1999/xlink" x="0px" y="0px"
	 width="248px" height="116px" viewBox="0 0 248 116" enable-background="new 0 0 248 116" xml:space="preserve">
<g>
	<g>
		<polygon fill="#FFFFFF" points="41.208,44.476 58.929,44.476 58.929,48.264 52.3,48.264 52.3,67.034 47.938,67.034 47.938,48.128 
			41.208,48.128 		"/>
		<path fill="#FFFFFF" d="M153.973,44.217h4.592v4.923h3.928v3.651h-4.059v5.532v3.098c0,0-0.146,1.853,1.236,1.853
			c1.578,0,2.324,0,2.324,0v3.762h-4.371c0,0-3.566,0.249-3.566-3.818c0-4.065,0-10.455,0-10.455h-2.572v-3.707h2.488V44.217z"/>
		<path fill="#FFFFFF" d="M78.21,49.109h4.328v1.725c0,0,1.422-2.029,4.837-2.029c2.942,0,4.565,2.537,4.565,2.537
			s1.252-2.435,5.479-2.435c4.229,0,5.986,2.841,5.986,5.986c0,3.145,0,12.005,0,12.005h-4.43V56.381c0,0,0.305-3.822-2.942-3.822
			c-1.657,0-2.976,1.549-2.976,3.179c0,1.589,0,11.262,0,11.262h-4.432V56.144c0,0,0.17-3.517-2.84-3.517
			c-1.59,0-3.111,1.285-3.111,3.957c0,2.671,0,10.45,0,10.45h-4.432L78.21,49.109z"/>
		<rect x="126.39" y="44.217" fill="#FFFFFF" width="4.42" height="23.366"/>
		<path fill="#FFFFFF" d="M66.907,48.673c-8.764,0-8.703,8.208-8.703,9.258c0,1.049,0.094,9.103,8.549,9.103
			c7.621,0,8.055-6.202,8.055-6.202h-4.414c0,0-0.493,2.5-3.609,2.5c-0.957,0-4.074-0.277-4.074-4.536h12.375
			C75.085,58.795,75.671,48.673,66.907,48.673z M62.896,55.802c0,0,0.092-3.58,3.826-3.58s3.734,3.549,3.734,3.549L62.896,55.802z"
			/>
		<path fill="#FFFFFF" d="M173.147,48.673c-8.764,0-8.703,8.208-8.703,9.258c0,1.049,0.094,9.103,8.549,9.103
			c7.621,0,8.053-6.202,8.053-6.202h-4.412c0,0-0.494,2.5-3.609,2.5c-0.957,0-4.074-0.277-4.074-4.536h12.375
			C181.325,58.795,181.911,48.673,173.147,48.673z M169.135,55.802c0,0,0.092-3.58,3.826-3.58s3.734,3.549,3.734,3.549
			L169.135,55.802z"/>
		<path fill="#FFFFFF" d="M116.167,48.805c-3.01,0-5.141,1.928-5.141,1.928v-1.624h-4.396l0.033,24.046h4.396v-7.914
			c0,0,1.691,1.928,5.006,1.928c4.87,0,7.508-3.28,7.508-10.01S119.177,48.805,116.167,48.805z M114.915,63.449
			c-2.976,0-3.99-2.368-3.99-5.885c0-3.518,1.556-5.039,4.126-5.039c1.86,0,4.16,1.319,4.16,5.107
			C119.211,61.42,117.892,63.449,114.915,63.449z"/>
		<path fill="#FFFFFF" d="M142.983,48.636c-3.01,0-8.455-0.542-8.455,6.054h4.16c0,0-0.236-2.57,3.449-2.57
			c3.348,0,3.18,3.179,3.18,3.179s-3.011-0.034-7.812,1.083c-3.957,1.217-3.924,4.329-3.924,5.174c0,1.218,0.947,5.479,6.426,5.479
			c3.687,0,5.412-2.13,5.412-2.13v1.826h4.16V54.792C149.579,54.792,150.288,48.636,142.983,48.636z M140.954,63.618
			c-0.508,0-2.908-0.169-2.908-2.13c0-2.977,7.17-2.875,7.17-2.875C145.216,63.314,142.036,63.618,140.954,63.618z"/>
		<path fill="#FFFFFF" d="M184.368,49.155h4.104v2.209h0.508c0.27-0.834,1.746-2.209,3.324-2.209c0.744,0,2.053,0,2.053,0v4.374
			h-2.143c0,0-3.404,0.091-3.404,3.382c0,2.097,0,10.124,0,10.124h-4.418L184.368,49.155z"/>
	</g>
	<polygon fill="#FFFFFF" points="200.606,66.324 196.547,66.324 196.547,73.783 189.362,73.783 189.362,77.842 200.606,77.842 	"/>
	<rect x="62.427" y="38.159" fill="#FFFFFF" width="8.443" height="4.059"/>
</g>
</svg>
