<?xml version="1.0" encoding="utf-8"?>
<!-- Generator: Adobe Illustrator 16.0.0, SVG Export Plug-In . SVG Version: 6.00 Build 0)  -->
<!DOCTYPE svg PUBLIC "-//W3C//DTD SVG 1.1//EN" "http://www.w3.org/Graphics/SVG/1.1/DTD/svg11.dtd">
<svg version="1.1" id="Layer_1" xmlns="http://www.w3.org/2000/svg" xmlns:xlink="http://www.w3.org/1999/xlink" x="0px" y="0px"
	 width="248px" height="116px" viewBox="0 0 248 116" enable-background="new 0 0 248 116" xml:space="preserve">
<g>
	<polygon fill="#F7F7F7" points="123.37,61.219 110.953,61.219 110.946,46.411 120.254,46.411 121.421,45.89 130.305,45.89 
		131.712,46.411 133.004,48.017 133.004,51.896 	"/>
	<g>
		<path fill="#00BFA5" d="M133.011,50.143v-2.27c0-1.095-0.888-1.983-1.983-1.983h-1.379v1.631h1.079c0,0,0.602,0.031,0.602,0.456
			c0,0.425,0,2.167,0,2.167H133.011z"/>
		<path fill="#00BFA5" d="M110.953,58.499V45.382c0-1.563,0.888-1.983,1.983-1.983h4.474c1.095,0,1.983,0.45,1.983,1.983v0.508l0,0
			h3.37v1.591h-9.766c-0.16,0-0.391,0.141-0.391,0.711s0,10.466,0,10.466s0.041,1.051-0.69,1.051
			C110.916,59.708,110.953,58.499,110.953,58.499z"/>
		<path fill="#00BFA5" d="M135.809,50.963h-13.999h-2.189c0,0-1.441-0.223-2.302,1.621c-0.42,0.9-3.662,6.874-3.662,6.874
			s-0.63,1.542-1.651,1.621c-0.871,0-1.053-0.961-1.053-0.961v0.683c0,1.096,0.65,1.983,1.746,1.983h12.605h4.603
			c0,0,1.351-0.004,1.921-0.574s2.702-5.083,2.702-5.083l2.001-3.808c1.366-2.358-0.375-2.356-0.375-2.356h-7.459"/>
		<path fill="#00BFA5" d="M130.111,42.884l-1.598-2.103c-0.005-0.007-0.011-0.014-0.017-0.021l-1.751-2.146
			c-0.148-0.182-0.37-0.287-0.604-0.287s-0.457,0.105-0.605,0.287l-1.75,2.146c-0.006,0.007-0.011,0.014-0.017,0.021l-1.631,2.145
			c-0.179,0.236-0.209,0.554-0.078,0.819s0.402,0.434,0.699,0.434h1.7v3.962c0,0.664,0.538,1.201,1.201,1.201h0.961
			c0.663,0,1.201-0.537,1.201-1.201v-3.962h1.7c0,0,0.001,0,0.002,0c0.431,0,0.78-0.35,0.78-0.78
			C130.305,43.202,130.232,43.021,130.111,42.884z"/>
	</g>
</g>
</svg>
