<?xml version="1.0" encoding="utf-8"?>
<!-- Generator: Adobe Illustrator 16.0.0, SVG Export Plug-In . SVG Version: 6.00 Build 0)  -->
<!DOCTYPE svg PUBLIC "-//W3C//DTD SVG 1.1//EN" "http://www.w3.org/Graphics/SVG/1.1/DTD/svg11.dtd" [
	<!ENTITY ns_flows "http://ns.adobe.com/Flows/1.0/">
	<!ENTITY ns_extend "http://ns.adobe.com/Extensibility/1.0/">
	<!ENTITY ns_ai "http://ns.adobe.com/AdobeIllustrator/10.0/">
	<!ENTITY ns_graphs "http://ns.adobe.com/Graphs/1.0/">
]>
<svg version="1.1" id="Layer_1" xmlns:x="&ns_extend;" xmlns:i="&ns_ai;" xmlns:graph="&ns_graphs;"
	 xmlns="http://www.w3.org/2000/svg" xmlns:xlink="http://www.w3.org/1999/xlink" xmlns:a="http://ns.adobe.com/AdobeSVGViewerExtensions/3.0/"
	 x="0px" y="0px" width="17px" height="14px" viewBox="0 0 17 14" enable-background="new 0 0 17 14" xml:space="preserve">
<path fill="#57617D" d="M0.335,13.47c-0.216-0.078-0.352-0.293-0.328-0.521c0.405-3.912,3.649-8.095,9.988-8.803V1
	c0-0.202,0.122-0.385,0.309-0.462s0.402-0.035,0.545,0.108l6,6c0.195,0.195,0.195,0.512,0,0.707l-6,6
	c-0.144,0.144-0.359,0.188-0.545,0.108c-0.187-0.077-0.309-0.26-0.309-0.462V9.903c-3.481,0.039-7.181,0.535-9.074,3.374
	C0.826,13.419,0.668,13.5,0.505,13.5C0.448,13.5,0.391,13.49,0.335,13.47z M10.995,2.207v2.393c0,0.26-0.199,0.477-0.458,0.498
	c-5.042,0.42-8.03,3.151-9.11,6.124C3.804,9.21,7.283,8.9,10.495,8.9c0.276,0,0.5,0.224,0.5,0.5v2.393L15.788,7L10.995,2.207z"/>
</svg>
