<?xml version="1.0" encoding="utf-8"?>
<!-- Generator: Adobe Illustrator 16.0.0, SVG Export Plug-In . SVG Version: 6.00 Build 0)  -->
<!DOCTYPE svg PUBLIC "-//W3C//DTD SVG 1.1//EN" "http://www.w3.org/Graphics/SVG/1.1/DTD/svg11.dtd">
<svg version="1.1" id="Layer_1" xmlns="http://www.w3.org/2000/svg" xmlns:xlink="http://www.w3.org/1999/xlink" x="0px" y="0px"
	 width="121.397px" height="116px" viewBox="0 0 121.397 116" enable-background="new 0 0 121.397 116" xml:space="preserve">
<path fill="#F45B92" d="M108.181,95.612L94.663,79.815c5.468-5.731,8.773-13.106,9.395-21.11c0.713-9.193-2.195-18.113-8.191-25.119
	C89.3,25.914,79.736,21.513,69.627,21.513c-8.216,0-16.182,2.946-22.432,8.295c-14.46,12.377-16.156,34.211-3.779,48.671
	c6.567,7.674,16.131,12.074,26.239,12.074c7.03,0,13.873-2.163,19.618-6.136l13.522,15.802c0.701,0.819,1.694,1.239,2.694,1.239
	c0.815,0,1.634-0.279,2.302-0.851C109.279,99.336,109.453,97.099,108.181,95.612z M48.8,73.872
	c-9.836-11.492-8.488-28.844,3.004-38.68c4.966-4.251,11.296-6.592,17.823-6.592c8.035,0,15.637,3.498,20.855,9.595
	c4.765,5.567,7.076,12.656,6.509,19.962c-0.567,7.306-3.946,13.953-9.513,18.718c-4.966,4.251-11.296,6.592-17.823,6.592
	C61.621,83.467,54.02,79.97,48.8,73.872z"/>
</svg>
