<?xml version="1.0" encoding="utf-8"?>
<!-- Generator: Adobe Illustrator 16.0.0, SVG Export Plug-In . SVG Version: 6.00 Build 0)  -->
<!DOCTYPE svg PUBLIC "-//W3C//DTD SVG 1.1//EN" "http://www.w3.org/Graphics/SVG/1.1/DTD/svg11.dtd" [
	<!ENTITY ns_flows "http://ns.adobe.com/Flows/1.0/">
	<!ENTITY ns_extend "http://ns.adobe.com/Extensibility/1.0/">
	<!ENTITY ns_ai "http://ns.adobe.com/AdobeIllustrator/10.0/">
	<!ENTITY ns_graphs "http://ns.adobe.com/Graphs/1.0/">
]>
<svg version="1.1" id="Layer_1" xmlns:x="&ns_extend;" xmlns:i="&ns_ai;" xmlns:graph="&ns_graphs;"
	 xmlns="http://www.w3.org/2000/svg" xmlns:xlink="http://www.w3.org/1999/xlink" xmlns:a="http://ns.adobe.com/AdobeSVGViewerExtensions/3.0/"
	 x="0px" y="0px" width="10px" height="10.209px" viewBox="0 0 10 10.209" enable-background="new 0 0 10 10.209"
	 xml:space="preserve">
<g>
	<g>
		<path fill="#DEE7FB" d="M6.627,0H0.76C0.34,0,0,0.341,0,0.76v5.868c0,0.419,0.34,0.759,0.76,0.759h5.867
			c0.419,0,0.76-0.34,0.76-0.759V0.76C7.387,0.341,7.046,0,6.627,0z M6.627,6.628H0.76V0.76h5.867V6.628z"/>
	</g>
	<g>
		<path fill="#DEE7FB" d="M9.241,2.822H3.373c-0.419,0-0.759,0.34-0.759,0.759v5.868c0,0.419,0.34,0.76,0.759,0.76h5.868
			C9.66,10.209,10,9.868,10,9.449V3.581C10,3.162,9.66,2.822,9.241,2.822z M9.241,9.449H3.373V3.581h5.868V9.449z"/>
	</g>
</g>
</svg>
