<?xml version="1.0" encoding="utf-8"?>
<!-- Generator: Adobe Illustrator 16.0.0, SVG Export Plug-In . SVG Version: 6.00 Build 0)  -->
<!DOCTYPE svg PUBLIC "-//W3C//DTD SVG 1.1//EN" "http://www.w3.org/Graphics/SVG/1.1/DTD/svg11.dtd" [
	<!ENTITY ns_flows "http://ns.adobe.com/Flows/1.0/">
	<!ENTITY ns_extend "http://ns.adobe.com/Extensibility/1.0/">
	<!ENTITY ns_ai "http://ns.adobe.com/AdobeIllustrator/10.0/">
	<!ENTITY ns_graphs "http://ns.adobe.com/Graphs/1.0/">
]>
<svg version="1.1" id="Layer_1" xmlns:x="&ns_extend;" xmlns:i="&ns_ai;" xmlns:graph="&ns_graphs;"
	 xmlns="http://www.w3.org/2000/svg" xmlns:xlink="http://www.w3.org/1999/xlink" xmlns:a="http://ns.adobe.com/AdobeSVGViewerExtensions/3.0/"
	 x="0px" y="0px" width="16px" height="16px" viewBox="0 0 16 16" enable-background="new 0 0 16 16" xml:space="preserve">
<g>
	<path fill="#8995B6" d="M8,0C3.582,0,0,3.582,0,8C0,12.418,3.582,16,8,16S16,12.418,16,8C16,3.582,12.418,0,8,0z M5.656,8.048
		c0,0.14-0.028,0.272-0.069,0.398l3.822,2.185c0.239-0.281,0.592-0.464,0.991-0.464c0.722,0,1.307,0.585,1.307,1.307
		s-0.585,1.307-1.307,1.307s-1.307-0.585-1.307-1.307c0-0.058,0.01-0.113,0.018-0.169L5.174,9.054
		C4.948,9.24,4.664,9.355,4.35,9.355c-0.722,0-1.307-0.585-1.307-1.307S3.628,6.742,4.35,6.742c0.317,0,0.605,0.117,0.83,0.306
		l3.95-2.227C9.108,4.726,9.094,4.628,9.094,4.526c0-0.722,0.585-1.307,1.307-1.307s1.307,0.585,1.307,1.307
		S11.122,5.833,10.4,5.833c-0.354,0-0.676-0.143-0.911-0.373L5.59,7.658C5.629,7.782,5.656,7.912,5.656,8.048z"/>
</g>
</svg>
